<?xml version="1.0" encoding="UTF-8"?>
<svg version="1.1" xmlns="http://www.w3.org/2000/svg" width="1080" height="1080">
<path d="M0 0 C1.20968445 -0.0033284 2.4193689 -0.0066568 3.66571045 -0.01008606 C6.21365992 -0.0151159 8.76161588 -0.01749562 11.30957031 -0.01733398 C15.12055957 -0.01950206 18.93124994 -0.03765006 22.7421875 -0.05664062 C45.31159887 -0.11139808 67.35716647 1.21985446 89.546875 5.41796875 C90.3803949 5.57203186 91.21391479 5.72609497 92.07269287 5.88482666 C105.53853211 8.37631904 118.78172935 11.28713065 131.921875 15.16796875 C133.5298999 15.62695557 133.5298999 15.62695557 135.17041016 16.09521484 C175.66897882 27.69645667 214.62980702 45.09848023 249.921875 68.16796875 C250.65986328 68.64927246 251.39785156 69.13057617 252.15820312 69.62646484 C266.73556763 79.21842433 280.54835475 89.97221546 293.921875 101.16796875 C294.67224533 101.79225517 294.67224533 101.79225517 295.43777466 102.42915344 C304.07181198 109.62925785 312.22382257 117.17775165 320.12915039 125.16943359 C321.87778724 126.93657585 323.6345449 128.6953349 325.39257812 130.453125 C331.11157359 136.18993038 336.69546514 141.97276539 341.921875 148.16796875 C342.7675 149.1321875 343.613125 150.09640625 344.484375 151.08984375 C362.17098842 171.61085034 376.93161291 194.03040466 390.921875 217.16796875 C391.3329248 217.84375977 391.74397461 218.51955078 392.16748047 219.21582031 C426.84957469 276.72339693 446.85991028 348.94078753 447.125 415.97265625 C447.13201431 417.16233505 447.13902863 418.35201385 447.14625549 419.57774353 C447.16367669 423.39952414 447.17010845 427.22114988 447.171875 431.04296875 C447.17288712 432.99981094 447.17288712 432.99981094 447.17391968 434.9961853 C447.15834982 453.91355964 446.81021729 472.44123114 443.921875 491.16796875 C443.74495117 492.3590625 443.56802734 493.55015625 443.38574219 494.77734375 C440.81033071 511.78662441 437.35465625 528.54698442 432.921875 545.16796875 C432.64005371 546.22628906 432.35823242 547.28460937 432.06787109 548.375 C424.53657541 576.15471018 413.933267 602.51823865 400.921875 628.16796875 C400.50228516 629.00682617 400.08269531 629.84568359 399.65039062 630.70996094 C383.51556402 662.88867712 362.76717835 692.26043412 338.921875 719.16796875 C338.27822998 719.89991455 337.63458496 720.63186035 336.97143555 721.38598633 C331.46726757 727.58471762 325.72768209 733.51754851 319.85571289 739.36450195 C318.35380575 740.861018 316.85736438 742.36285175 315.36132812 743.86523438 C310.05407188 749.17642735 304.65072461 754.30930371 298.921875 759.16796875 C297.95765625 760.01359375 296.9934375 760.85921875 296 761.73046875 C233.08044116 815.95948079 155.77639525 849.20679451 73.921875 861.16796875 C72.31070801 861.41788574 72.31070801 861.41788574 70.66699219 861.67285156 C52.69695216 864.38266403 34.74694476 864.45357164 16.609375 864.48046875 C14.82699432 864.48598251 14.82699432 864.48598251 13.00860596 864.49160767 C-71.75374818 864.62835181 -153.28196108 839.6412446 -271.49609375 756.50390625 C-272.89645335 755.23701511 -274.30282907 753.97612967 -275.73901367 752.75 C-281.56842914 747.76001435 -287.01910223 742.41313842 -292.44116211 736.99023438 C-294.00421234 735.42936548 -295.57509865 733.87668987 -297.14648438 732.32421875 C-302.7866416 726.71528154 -308.03406981 720.97958349 -312.99536133 714.74731445 C-314.98811769 712.27943601 -317.0579353 709.92037988 -319.1875 707.5703125 C-323.16239489 703.14229531 -326.77781972 698.50287002 -330.328125 693.73046875 C-330.97434814 692.86357422 -331.62057129 691.99667969 -332.28637695 691.10351562 C-342.64291326 677.099306 -351.92879965 662.50225681 -360.72460938 647.47558594 C-361.92994889 645.42059512 -363.15071006 643.37575335 -364.375 641.33203125 C-392.4465206 593.75845855 -408.81307042 537.86961434 -415.078125 483.16796875 C-415.16426056 482.42623413 -415.25039612 481.68449951 -415.33914185 480.92028809 C-417.15435233 464.83577918 -417.43846727 448.84298131 -417.390625 432.66796875 C-417.38880219 431.38838287 -417.38697937 430.108797 -417.38510132 428.79043579 C-417.34020048 410.06883452 -416.93648185 391.70029401 -414.078125 373.16796875 C-413.81273926 371.38132812 -413.81273926 371.38132812 -413.54199219 369.55859375 C-406.1447311 320.70345319 -390.97884228 273.94995778 -368.078125 230.16796875 C-367.69495117 229.4320752 -367.31177734 228.69618164 -366.91699219 227.93798828 C-356.22240953 207.55331014 -343.94603757 188.03494822 -329.56884766 170.04394531 C-328.09683201 168.1915103 -326.65233983 166.32071296 -325.21484375 164.44140625 C-320.02973693 157.688857 -314.61116892 151.2874971 -308.78125 145.08203125 C-306.78435801 142.92931243 -304.86196418 140.75889381 -302.953125 138.53125 C-298.62145534 133.56028888 -293.98819731 128.89197804 -289.32763672 124.23217773 C-287.83919263 122.7415526 -286.35895223 121.24309858 -284.87890625 119.74414062 C-279.34214032 114.17563995 -273.6614578 109.00210578 -267.49853516 104.11474609 C-265.15379704 102.22883307 -262.92205051 100.26194771 -260.703125 98.23046875 C-237.26169845 77.26089737 -209.58905391 60.57787642 -181.62304688 46.46240234 C-179.44264162 45.35337427 -177.28064885 44.21859903 -175.125 43.0625 C-122.67341853 15.26993705 -59.18675839 0.05864226 0 0 Z " fill="#FEFEFE" transform="translate(525.078125,107.83203125)"/>
<path d="M0 0 C99.66 0 199.32 0 302 0 C302 26.07 302 52.14 302 79 C268.67 79 235.34 79 201 79 C201 155.23 201 231.46 201 310 C168 310 135 310 101 310 C101 233.77 101 157.54 101 79 C67.67 79 34.34 79 0 79 C0 52.93 0 26.86 0 0 Z " fill="#004AAD" transform="translate(521,380)"/>
<path d="M0 0 C14.68985086 -0.39805295 29.37898402 -0.69733801 44.0731411 -0.88080692 C50.89711675 -0.96828456 57.71773302 -1.08739019 64.53955078 -1.2824707 C71.12711294 -1.47076163 77.71211262 -1.56891069 84.30247879 -1.61291313 C86.81233179 -1.64425305 89.32200017 -1.70546504 91.83036423 -1.79741096 C110.98436241 -2.47138921 110.98436241 -2.47138921 116.00992203 1.64718056 C119.34029861 5.65627487 121.37496215 10.06387567 123.18177891 14.9194355 C124.37525802 17.95420238 125.99103108 20.58609981 127.6953125 23.36328125 C128.83942654 25.34584378 129.98264283 27.32892464 131.125 29.3125 C131.7533374 30.40224121 132.3816748 31.49198242 133.02905273 32.61474609 C138.06479686 41.35648414 143.06648696 50.11742475 148.06390381 58.88110352 C154.01278648 69.3099281 160.04292529 79.68995971 166.109375 90.05078125 C168.43226261 94.01942419 170.72803531 98.00200388 173 102 C173.66 102 174.32 102 175 102 C175.35078613 101.36835938 175.70157227 100.73671875 176.06298828 100.0859375 C183.70985139 86.33297865 191.48090039 72.66630949 199.4375 59.08984375 C203.13213382 52.78429459 206.78838145 46.45697292 210.4375 40.125 C211.04988525 39.06297363 211.66227051 38.00094727 212.29321289 36.90673828 C215.25740466 31.76446446 218.21867877 26.62052505 221.17622375 21.47442627 C222.57181471 19.04665732 223.96858415 16.61956752 225.36550903 14.19256592 C226.35871466 12.46581312 227.35014865 10.73804168 228.34155273 9.01025391 C228.93782471 7.97433105 229.53409668 6.9384082 230.1484375 5.87109375 C230.67614746 4.95255615 231.20385742 4.03401855 231.74755859 3.08764648 C233 1 233 1 234 0 C240.27 0 246.54 0 253 0 C253 36.63 253 73.26 253 111 C258.94 111 264.88 111 271 111 C269.46197267 114.84506832 268.07234479 117.67137031 265.8671875 121.078125 C265.23409668 122.06127686 264.60100586 123.04442871 263.94873047 124.05737305 C263.26439941 125.11093994 262.58006836 126.16450684 261.875 127.25 C260.78869115 128.93457837 259.70238859 130.61916084 258.6164856 132.30400085 C257.49041095 134.05002446 256.36253188 135.794872 255.234375 137.53955078 C251.76339028 142.91074938 248.3203845 148.29986024 244.875 153.6875 C244.29218262 154.59725586 243.70936523 155.50701172 243.10888672 156.44433594 C241.88562954 158.35453727 240.67901955 160.27548284 239.48770142 162.20576477 C237.66202643 165.08440532 235.65961116 167.7623311 233.57287598 170.45677185 C222.24586789 185.68804993 221.03689579 198.25277875 221.4140625 216.8359375 C221.42556567 219.53982471 221.41590433 222.24353207 221.40682983 224.94741821 C221.39744505 231.27315265 221.4583162 237.59604764 221.54635084 243.92109549 C221.65278753 251.84960764 221.66203793 259.77791216 221.671875 267.70703125 C221.68978434 281.80657886 221.85121974 295.89988194 222 310 C189 310 156 310 122 310 C122.12503906 301.49476563 122.25007813 292.98953125 122.37890625 284.2265625 C122.42551763 278.09091982 122.4612393 271.95595419 122.48147678 265.82024574 C122.50900055 257.90728525 122.56066182 249.99715503 122.7097168 242.08544922 C122.82781401 235.81251445 122.88302116 229.54239691 122.86853737 223.26832139 C122.86293521 219.95589978 122.89417128 216.65487381 122.98260689 213.34288406 C123.50861294 192.5200579 118.42753215 180.8093705 106.02789116 164.68333054 C103.21655627 160.96333761 100.72385114 157.07360825 98.25 153.125 C97.39240161 151.79312519 96.5332513 150.4622471 95.671875 149.1328125 C95.24326172 148.46926758 94.81464844 147.80572266 94.37304688 147.12207031 C91.75566488 143.07685617 89.12713476 139.03888411 86.5 135 C80.20617366 125.3223861 73.93341552 115.63126427 67.66601562 105.93652344 C62.28760488 97.6176531 56.90066836 89.3044415 51.5 81 C45.20626913 71.32232378 38.93341571 61.63126457 32.66601562 51.93652344 C29.44614433 46.95629914 26.22402524 41.97753616 23 37 C22.47615723 36.19095215 21.95231445 35.3819043 21.41259766 34.54833984 C19.75535346 31.9898306 18.09673973 29.43221551 16.4375 26.875 C15.89536865 26.03880127 15.3532373 25.20260254 14.79467773 24.34106445 C12.20993994 20.36343802 9.60758363 16.40025587 6.953125 12.46875 C6.48463135 11.77410645 6.0161377 11.07946289 5.53344727 10.36376953 C4.65798488 9.07018771 3.7784723 7.77933459 2.89428711 6.49169922 C0 2.218573 0 2.218573 0 0 Z " fill="#282828" transform="translate(236,380)"/>
<path d="M0 0 C0 2.97 0 5.94 0 9 C-53.27055264 9.69210978 -106.54100908 10.25290665 -159.8142939 10.68416781 C-166.63743449 10.73940533 -173.46056999 10.79523865 -180.28370285 10.85142326 C-202.01157942 11.03028439 -223.73947065 11.20723858 -245.46737532 11.3826515 C-262.3623084 11.51912388 -279.25721474 11.65864543 -296.15211137 11.79955173 C-313.7741902 11.94648905 -331.39628654 12.09114954 -349.01840246 12.23357147 C-358.80271203 12.31268897 -368.58701313 12.39260974 -378.37129593 12.47497749 C-426.91534273 12.88290347 -475.45418636 13.09389535 -524 13 C-524 10.03 -524 7.06 -524 4 C-467.51227002 3.30993302 -411.02456132 2.8588899 -354.53385925 2.51542425 C-340.18402426 2.42807312 -325.83419587 2.33964003 -311.484375 2.25 C-310.65803873 2.24483958 -309.83170246 2.23967916 -308.9803257 2.23436236 C-276.73648782 2.03264899 -244.49317294 1.79085958 -212.25 1.5 C-211.11460911 1.48983479 -209.97921822 1.47966957 -208.80942154 1.46919632 C-186.66255903 1.27046862 -164.51623116 1.05932952 -142.37109375 0.71484375 C-141.23552851 0.69723086 -141.23552851 0.69723086 -140.07702255 0.67926216 C-134.25150095 0.58866016 -128.42598992 0.49732628 -122.60050964 0.40410233 C-81.73698139 -0.24810688 -40.8673691 -0.09378518 0 0 Z " fill="#054DAE" transform="translate(869,770)"/>
<path d="M0 0 C4.50503185 3.30626801 8.5369245 7.81736909 9.8203125 13.3359375 C10.56079236 21.2119505 9.39162442 27.21970638 4.4453125 33.5859375 C-0.20831707 38.46116848 -4.71892522 40.39608355 -11.3671875 40.7109375 C-16.85857047 40.64750568 -20.80943148 38.53668839 -25.1796875 35.3359375 C-27.5546875 32.8984375 -27.5546875 32.8984375 -29.1796875 30.3359375 C-30.0459375 29.0365625 -30.0459375 29.0365625 -30.9296875 27.7109375 C-33.19965373 21.58202869 -33.30436156 15.05799648 -30.6171875 9.0234375 C-27.7689564 4.10468379 -23.69883609 0.83380963 -18.8671875 -2.0390625 C-12.19023018 -3.59184327 -6.02712335 -3.44058458 0 0 Z " fill="#2F2F2F" transform="translate(417.1796875,719.6640625)"/>
<path d="M0 0 C5.28362265 3.00546146 9.48172849 7.78744187 11.75 13.4375 C12.65051326 20.76725906 12.32939348 27.43876235 7.75 33.4375 C3.03740502 38.44044443 -1.4900438 41.40048022 -8.4375 41.875 C-14.72699613 41.7070001 -20.58694537 39.22243356 -24.95703125 34.65234375 C-30.05499044 27.73263545 -30.05180026 20.75041761 -29.25 12.4375 C-27.09902999 6.2064389 -22.72802543 2.78518221 -17.25 -0.5625 C-11.56978516 -2.45590495 -5.50898331 -2.48381907 0 0 Z " fill="#2D2D2D" transform="translate(754.25,718.5625)"/>
<path d="M0 0 C5.56792745 3.07286562 8.65432505 6.83797515 10.6875 12.9375 C11.35750408 20.35147958 11.33226115 26.85313452 6.6875 32.9375 C1.92318313 37.99535298 -2.59469197 40.92793614 -9.625 41.3125 C-15.43628719 41.14839388 -19.82971329 39.26063967 -24.07421875 35.2890625 C-29.33052323 29.4600372 -30.73017999 24.4533694 -30.5625 16.65625 C-29.97491705 10.26628541 -27.23399166 6.07602707 -22.3125 1.9375 C-15.05180712 -3.3300615 -8.21100183 -3.69006332 0 0 Z " fill="#2C2C2C" transform="translate(802.3125,719.0625)"/>
<path d="M0 0 C46.2 0 92.4 0 140 0 C140 2.97 140 5.94 140 9 C93.8 9 47.6 9 0 9 C0 6.03 0 3.06 0 0 Z " fill="#004AAD" transform="translate(222,336)"/>
<path d="M0 0 C18 0 18 0 24 4 C25.53597454 7.07194908 25.2265038 9.60244293 25 13 C23.5 16.4375 23.5 16.4375 22 19 C22.969375 19.639375 23.93875 20.27875 24.9375 20.9375 C27.65212875 23.21261743 28.59705871 24.94208757 29.1875 28.4375 C29.35096571 31.81954908 28.95103027 33.74854651 26.875 36.4375 C18.63716203 43.7799208 12.14803285 41 0 41 C0 27.47 0 13.94 0 0 Z " fill="#292929" transform="translate(690,718)"/>
<path d="M0 0 C20 0 20 0 26 4 C28.69587307 8.0438096 28.66344948 11.25067263 28 16 C26.25 19.5 26.25 19.5 24 22 C21.859375 22.65625 21.859375 22.65625 20 23 C23.65033647 28.02756964 27.47093966 32.76279591 31.6796875 37.3359375 C33 39 33 39 33 41 C28.68591381 42.01640774 25.2815681 42.25350157 21 41 C16.36626946 36.86053405 13.18757305 31.27079008 10 26 C9.67 30.95 9.34 35.9 9 41 C6.03 41 3.06 41 0 41 C0 27.47 0 13.94 0 0 Z " fill="#292929" transform="translate(475,718)"/>
<path d="M0 0 C3.80112828 -0.54784945 7.22437577 -0.79459492 11 0 C13.18106716 2.18960363 14.45671651 4.29659436 15.87890625 7.03125 C16.24886719 7.6809375 16.61882813 8.330625 17 9 C17.66 9 18.32 9 19 9 C19.81918896 7.51485167 20.60530868 6.01139386 21.375 4.5 C22.9375 2.00390625 22.9375 2.00390625 25 0 C29.09937678 -0.80000593 32.87576396 -0.54055521 37 0 C33.15717678 6.12415343 29.27631922 12.16865561 25 18 C26.36562761 20.88949525 27.92543931 23.44205767 29.78515625 26.0390625 C30.31560547 26.78414062 30.84605469 27.52921875 31.39257812 28.296875 C31.94365234 29.06515625 32.49472656 29.8334375 33.0625 30.625 C34.15876455 32.15798783 35.25387357 33.69180287 36.34765625 35.2265625 C36.83242432 35.90283691 37.31719238 36.57911133 37.81665039 37.27587891 C39 39 39 39 40 41 C35.46758274 41.74619065 31.49777476 42.04862406 27 41 C24.18401896 38.07719115 22.41429164 35.18832542 20.48828125 31.625 C19.99714844 30.75875 19.50601563 29.8925 19 29 C18.34 29 17.68 29 17 29 C15.84817968 30.98467502 14.72871064 32.98817301 13.625 35 C9.96047704 40.76046783 9.96047704 40.76046783 5.8046875 41.796875 C2.78974797 41.7541099 -0.03439971 41.53380805 -3 41 C-0.97638408 37.28528721 1.07486421 33.78968217 3.6484375 30.4296875 C4.09574219 29.84316406 4.54304687 29.25664063 5.00390625 28.65234375 C5.9305294 27.4511656 6.8683955 26.25858991 7.81640625 25.07421875 C9.34769846 23.1223234 9.34769846 23.1223234 11 20 C10.24752975 15.52001507 7.00977809 11.94767039 4.375 8.3125 C0 2.26667945 0 2.26667945 0 0 Z " fill="#2B2B2B" transform="translate(595,718)"/>
<path d="M0 0 C2.97 0 5.94 0 9 0 C9.33 4.95 9.66 9.9 10 15 C10.81082031 13.9171875 11.62164063 12.834375 12.45703125 11.71875 C21.21186111 0.53770686 21.21186111 0.53770686 26.3125 -0.99609375 C29.02408235 -0.94313316 31.38569641 -0.70727652 34 0 C31.06159558 4.60350025 27.81322221 8.74128815 24.25 12.875 C23.74339844 13.46796875 23.23679687 14.0609375 22.71484375 14.671875 C21.47944798 16.11705495 20.24013143 17.55888175 19 19 C22.8596506 23.52695596 22.8596506 23.52695596 26.78125 28 C30.49126665 32.16563273 33.83911428 36.40234804 37 41 C32.48948749 41.69990711 28.49235493 41.90144277 24 41 C19.92637117 37.85979871 17.02649617 34.13008041 14 30 C12.68 28.35 11.36 26.7 10 25 C9.67 30.28 9.34 35.56 9 41 C6.03 41 3.06 41 0 41 C0 27.47 0 13.94 0 0 Z " fill="#292929" transform="translate(821,718)"/>
<path d="M0 0 C2.97 0 5.94 0 9 0 C9.01981934 0.83249268 9.03963867 1.66498535 9.06005859 2.52270508 C9.13820742 5.614765 9.22490206 8.70643383 9.31738281 11.7980957 C9.37444092 13.7929536 9.42164442 15.7880854 9.46875 17.78320312 C9.50742187 19.03681641 9.54609375 20.29042969 9.5859375 21.58203125 C9.6173584 22.73936768 9.6487793 23.8967041 9.68115234 25.08911133 C9.79471033 28.19127028 9.79471033 28.19127028 12 31 C13.901994 31.47558206 13.901994 31.47558206 16 31.375 C17.051875 31.38660156 17.051875 31.38660156 18.125 31.3984375 C20.41058594 31.140914 20.41058594 31.140914 22 28 C22.36927046 24.9957293 22.36927046 24.9957293 22.4140625 21.58203125 C22.45273437 20.32841797 22.49140625 19.07480469 22.53125 17.78320312 C22.5621875 16.47287109 22.593125 15.16253906 22.625 13.8125 C22.66319338 12.4771884 22.70224591 11.14190108 22.7421875 9.80664062 C22.83659153 6.53790112 22.92217017 3.26916936 23 0 C25.97 0 28.94 0 32 0 C32.07451364 4.3049777 32.12877223 8.60960734 32.16479492 12.91503906 C32.17982196 14.37767075 32.20024955 15.84025782 32.22631836 17.30273438 C32.26297267 19.4128728 32.27978676 21.52241226 32.29296875 23.6328125 C32.3086792 24.90012207 32.32438965 26.16743164 32.34057617 27.47314453 C31.90601231 31.97329479 30.38277858 35.15629522 27.6875 38.75 C22.78292018 42.38302209 16.87052793 42.67453104 11 42 C6.28121312 40.30835942 3.79417183 38.13951382 1 34 C-0.17942085 30.46173745 -0.11289189 27.65851274 -0.09765625 23.92578125 C-0.0962413 23.2419487 -0.09482635 22.55811615 -0.09336853 21.8535614 C-0.08777876 19.67316278 -0.07522822 17.49286749 -0.0625 15.3125 C-0.05748367 13.83268378 -0.052921 12.35286594 -0.04882812 10.87304688 C-0.03781271 7.24866443 -0.02055512 3.6243423 0 0 Z " fill="#292929" transform="translate(434,718)"/>
<path d="M0 0 C7.92 0 15.84 0 24 0 C24 2.64 24 5.28 24 8 C19.38 8 14.76 8 10 8 C10 10.64 10 13.28 10 16 C14.29 16 18.58 16 23 16 C23 18.97 23 21.94 23 25 C18.71 25 14.42 25 10 25 C10 27.64 10 30.28 10 33 C14.62 33 19.24 33 24 33 C24 35.64 24 38.28 24 41 C16.08 41 8.16 41 0 41 C0 27.47 0 13.94 0 0 Z " fill="#2D2D2D" transform="translate(564,718)"/>
<path d="M0 0 C3.8939354 -0.7730607 7.14002505 -1.03202476 11 0 C14.39776728 3.61442118 16.72089709 7.61158408 19 12 C19.43828125 11.13375 19.8765625 10.2675 20.328125 9.375 C22.33142102 5.85701675 24.18402915 2.91836979 27 0 C31.17885558 -1.03961773 34.78673994 -0.75838681 39 0 C37.97916667 1.60416667 36.95833333 3.20833333 35.9375 4.8125 C35.30457031 5.82957031 34.67164063 6.84664062 34.01953125 7.89453125 C32 11 32 11 30.01171875 13.51171875 C23.56949502 22.00798483 23.9255776 30.74034116 24 41 C20.7 41 17.4 41 14 41 C14.07863281 39.77667969 14.15726562 38.55335938 14.23828125 37.29296875 C14.62725638 22.93677218 10.16423149 14.64343232 1.17749023 3.65380859 C0 2 0 2 0 0 Z " fill="#2E2E2E" transform="translate(343,718)"/>
<path d="M0 0 C9.57 0 19.14 0 29 0 C29 2.64 29 5.28 29 8 C25.7 8 22.4 8 19 8 C19 18.89 19 29.78 19 41 C16.03 41 13.06 41 10 41 C10 30.11 10 19.22 10 8 C6.7 8 3.4 8 0 8 C0 5.36 0 2.72 0 0 Z " fill="#272727" transform="translate(637,718)"/>
<path d="M0 0 C9.57 0 19.14 0 29 0 C29 2.64 29 5.28 29 8 C25.7 8 22.4 8 19 8 C19 18.89 19 29.78 19 41 C16.03 41 13.06 41 10 41 C10 30.11 10 19.22 10 8 C6.7 8 3.4 8 0 8 C0 5.36 0 2.72 0 0 Z " fill="#272727" transform="translate(528,718)"/>
<path d="M0 0 C3.32166291 1.91918301 4.69068126 3.33717414 6.3125 6.8125 C7.43810847 12.03123018 7.79305353 15.49886295 5.25 20.3125 C2.26087444 23.88284442 0.66690646 24.74634032 -3.875 25.4375 C-8.29756265 24.81834123 -9.85550157 23.14449843 -13 20 C-14.75131591 14.74605226 -14.8898402 9.13561649 -12.75 4 C-9.03608813 -0.24447071 -5.55699475 -0.58494682 0 0 Z " fill="#F8F8F8" transform="translate(749,726)"/>
<path d="M0 0 C3.22618733 2.0790985 4.8669302 3.80039529 7 7 C7.73981114 11.99802641 7.51803233 15.96393533 5.25 20.5 C2.19230886 23.8974346 0.56373253 24.80037457 -3.9375 25.375 C-7.81080888 24.90071728 -9.29705739 23.77802435 -12 21 C-14.54297392 16.76171014 -14.85366781 11.80927706 -14 7 C-10.57807763 0.88124662 -6.81741812 -0.5777473 0 0 Z " fill="#F9F9F9" transform="translate(796,726)"/>
<path d="M0 0 C3.95403662 0.26360244 5.65370756 0.86143155 8.75 3.25 C11.86319473 7.91979209 11.47810766 12.78558808 10.75 18.25 C9.122775 21.48025335 7.02822678 23.61088661 3.75 25.25 C-0.90408901 25.6636968 -3.50239476 25.06070393 -7.25 22.25 C-10.49377487 17.38433769 -9.97657721 11.93439814 -9.25 6.25 C-7.82920091 3.72527067 -6.69386771 2.91898282 -4.25 1.25 C-3.25 0.25 -3.25 0.25 0 0 Z " fill="#FAFAFA" transform="translate(405.25,725.75)"/>
<path d="M0 0 C5.34965035 -0.35664336 5.34965035 -0.35664336 7.9375 1.0625 C9.64787795 4.18142449 8.80513863 6.65557801 8 10 C5.29120665 11.35439668 2.99066732 11.06501451 0 11 C0 7.37 0 3.74 0 0 Z " fill="#F1F1F1" transform="translate(484,725)"/>
<path d="M0 0 C6.39075249 -0.36174071 6.39075249 -0.36174071 9 1.1875 C10 3 10 3 9.875 5.5625 C9 8 9 8 6 10 C2.8125 10.125 2.8125 10.125 0 10 C0 6.7 0 3.4 0 0 Z " fill="#F1F1F1" transform="translate(699,742)"/>
<path d="M0 0 C2.97 0.495 2.97 0.495 6 1 C6.6875 3.3125 6.6875 3.3125 7 6 C5.8125 7.8125 5.8125 7.8125 4 9 C2.68 9 1.36 9 0 9 C0 6.03 0 3.06 0 0 Z " fill="#EFEFEF" transform="translate(699,725)"/>
</svg>
